<svg id="visual" viewBox="0 0 900 600" width="900" height="600" xmlns="http://www.w3.org/2000/svg" xmlns:xlink="http://www.w3.org/1999/xlink" version="1.1"><g stroke-width="1" stroke-linejoin="bevel"><path d="M418 304L480 378L490 321Z" fill="#277297" stroke="#277297"></path><path d="M418 304L391 391L480 378Z" fill="#15384f" stroke="#15384f"></path><path d="M391 391L464 460L480 378Z" fill="#081a28" stroke="#081a28"></path><path d="M391 391L429 469L464 460Z" fill="#19435d" stroke="#19435d"></path><path d="M418 304L318 362L391 391Z" fill="#297ea6" stroke="#297ea6"></path><path d="M391 391L289 485L429 469Z" fill="#112e42" stroke="#112e42"></path><path d="M490 321L431 193L418 304Z" fill="#081a28" stroke="#081a28"></path><path d="M418 304L264 279L318 362Z" fill="#246688" stroke="#246688"></path><path d="M637 415L588 264L490 321Z" fill="#00101c" stroke="#00101c"></path><path d="M490 321L507 184L431 193Z" fill="#277297" stroke="#277297"></path><path d="M637 415L490 321L480 378Z" fill="#00101c" stroke="#00101c"></path><path d="M588 264L507 184L490 321Z" fill="#246688" stroke="#246688"></path><path d="M315 187L264 279L418 304Z" fill="#15384f" stroke="#15384f"></path><path d="M588 264L560 178L507 184Z" fill="#081a28" stroke="#081a28"></path><path d="M464 460L637 415L480 378Z" fill="#297ea6" stroke="#297ea6"></path><path d="M323 126L315 187L431 193Z" fill="#112e42" stroke="#112e42"></path><path d="M431 193L315 187L418 304Z" fill="#081a28" stroke="#081a28"></path><path d="M323 126L431 193L403 80Z" fill="#277297" stroke="#277297"></path><path d="M236 393L289 485L318 362Z" fill="#297ea6" stroke="#297ea6"></path><path d="M318 362L289 485L391 391Z" fill="#246688" stroke="#246688"></path><path d="M264 279L234 339L318 362Z" fill="#00101c" stroke="#00101c"></path><path d="M234 339L236 393L318 362Z" fill="#205a7a" stroke="#205a7a"></path><path d="M464 460L625 487L637 415Z" fill="#081a28" stroke="#081a28"></path><path d="M464 600L625 487L464 460Z" fill="#297ea6" stroke="#297ea6"></path><path d="M464 600L464 460L429 469Z" fill="#0c2435" stroke="#0c2435"></path><path d="M790 423L684 367L637 415Z" fill="#112e42" stroke="#112e42"></path><path d="M637 415L684 367L588 264Z" fill="#205a7a" stroke="#205a7a"></path><path d="M588 264L676 237L560 178Z" fill="#1d4e6b" stroke="#1d4e6b"></path><path d="M684 367L678 279L588 264Z" fill="#297ea6" stroke="#297ea6"></path><path d="M403 80L431 193L494 66Z" fill="#246688" stroke="#246688"></path><path d="M315 187L181 178L264 279Z" fill="#297ea6" stroke="#297ea6"></path><path d="M264 279L118 276L234 339Z" fill="#081a28" stroke="#081a28"></path><path d="M678 279L676 237L588 264Z" fill="#19435d" stroke="#19435d"></path><path d="M787 335L676 237L678 279Z" fill="#00101c" stroke="#00101c"></path><path d="M417 600L464 600L429 469Z" fill="#1d4e6b" stroke="#1d4e6b"></path><path d="M289 485L417 600L429 469Z" fill="#081a28" stroke="#081a28"></path><path d="M494 66L431 193L507 184Z" fill="#297ea6" stroke="#297ea6"></path><path d="M494 66L507 184L560 178Z" fill="#297ea6" stroke="#297ea6"></path><path d="M570 71L494 66L560 178Z" fill="#0c2435" stroke="#0c2435"></path><path d="M85 436L186 465L236 393Z" fill="#277297" stroke="#277297"></path><path d="M236 393L186 465L289 485Z" fill="#112e42" stroke="#112e42"></path><path d="M289 485L271 600L417 600Z" fill="#0c2435" stroke="#0c2435"></path><path d="M628 600L679 517L625 487Z" fill="#081a28" stroke="#081a28"></path><path d="M625 487L679 517L637 415Z" fill="#081a28" stroke="#081a28"></path><path d="M668 95L570 71L560 178Z" fill="#246688" stroke="#246688"></path><path d="M186 465L271 600L289 485Z" fill="#19435d" stroke="#19435d"></path><path d="M323 126L181 178L315 187Z" fill="#15384f" stroke="#15384f"></path><path d="M234 339L85 436L236 393Z" fill="#246688" stroke="#246688"></path><path d="M179 66L181 178L323 126Z" fill="#246688" stroke="#246688"></path><path d="M464 600L628 600L625 487Z" fill="#205a7a" stroke="#205a7a"></path><path d="M829 190L668 95L676 237Z" fill="#15384f" stroke="#15384f"></path><path d="M676 237L668 95L560 178Z" fill="#277297" stroke="#277297"></path><path d="M181 178L118 276L264 279Z" fill="#00101c" stroke="#00101c"></path><path d="M790 423L787 335L684 367Z" fill="#1d4e6b" stroke="#1d4e6b"></path><path d="M684 367L787 335L678 279Z" fill="#112e42" stroke="#112e42"></path><path d="M486 0L494 66L570 71Z" fill="#081a28" stroke="#081a28"></path><path d="M486 0L433 0L494 66Z" fill="#246688" stroke="#246688"></path><path d="M494 66L433 0L403 80Z" fill="#1d4e6b" stroke="#1d4e6b"></path><path d="M403 80L260 0L323 126Z" fill="#0c2435" stroke="#0c2435"></path><path d="M628 600L675 600L679 517Z" fill="#246688" stroke="#246688"></path><path d="M679 517L790 423L637 415Z" fill="#112e42" stroke="#112e42"></path><path d="M595 0L486 0L570 71Z" fill="#112e42" stroke="#112e42"></path><path d="M121 86L134 181L181 178Z" fill="#1d4e6b" stroke="#1d4e6b"></path><path d="M181 178L134 181L118 276Z" fill="#19435d" stroke="#19435d"></path><path d="M828 504L790 423L679 517Z" fill="#0c2435" stroke="#0c2435"></path><path d="M668 95L595 0L570 71Z" fill="#00101c" stroke="#00101c"></path><path d="M118 276L85 436L234 339Z" fill="#19435d" stroke="#19435d"></path><path d="M186 465L174 600L271 600Z" fill="#0c2435" stroke="#0c2435"></path><path d="M0 290L85 436L118 276Z" fill="#297ea6" stroke="#297ea6"></path><path d="M92 476L174 600L186 465Z" fill="#112e42" stroke="#112e42"></path><path d="M85 436L92 476L186 465Z" fill="#1d4e6b" stroke="#1d4e6b"></path><path d="M260 0L179 66L323 126Z" fill="#205a7a" stroke="#205a7a"></path><path d="M433 0L260 0L403 80Z" fill="#0c2435" stroke="#0c2435"></path><path d="M787 335L829 190L676 237Z" fill="#0c2435" stroke="#0c2435"></path><path d="M668 95L692 0L595 0Z" fill="#277297" stroke="#277297"></path><path d="M900 267L829 190L787 335Z" fill="#15384f" stroke="#15384f"></path><path d="M776 600L828 504L679 517Z" fill="#081a28" stroke="#081a28"></path><path d="M900 439L900 267L787 335Z" fill="#297ea6" stroke="#297ea6"></path><path d="M179 66L121 86L181 178Z" fill="#112e42" stroke="#112e42"></path><path d="M0 191L0 290L118 276Z" fill="#0c2435" stroke="#0c2435"></path><path d="M84 0L121 86L179 66Z" fill="#246688" stroke="#246688"></path><path d="M675 600L776 600L679 517Z" fill="#00101c" stroke="#00101c"></path><path d="M778 0L692 0L668 95Z" fill="#19435d" stroke="#19435d"></path><path d="M260 0L187 0L179 66Z" fill="#00101c" stroke="#00101c"></path><path d="M0 191L118 276L134 181Z" fill="#277297" stroke="#277297"></path><path d="M0 536L70 600L92 476Z" fill="#205a7a" stroke="#205a7a"></path><path d="M0 437L92 476L85 436Z" fill="#297ea6" stroke="#297ea6"></path><path d="M92 476L70 600L174 600Z" fill="#297ea6" stroke="#297ea6"></path><path d="M0 290L0 437L85 436Z" fill="#1d4e6b" stroke="#1d4e6b"></path><path d="M900 439L787 335L790 423Z" fill="#205a7a" stroke="#205a7a"></path><path d="M829 190L838 90L668 95Z" fill="#15384f" stroke="#15384f"></path><path d="M828 504L900 439L790 423Z" fill="#277297" stroke="#277297"></path><path d="M900 471L900 439L828 504Z" fill="#277297" stroke="#277297"></path><path d="M900 118L838 90L829 190Z" fill="#112e42" stroke="#112e42"></path><path d="M900 600L900 471L828 504Z" fill="#15384f" stroke="#15384f"></path><path d="M0 131L0 191L134 181Z" fill="#297ea6" stroke="#297ea6"></path><path d="M0 131L134 181L121 86Z" fill="#0c2435" stroke="#0c2435"></path><path d="M838 90L778 0L668 95Z" fill="#277297" stroke="#277297"></path><path d="M900 267L900 190L829 190Z" fill="#1d4e6b" stroke="#1d4e6b"></path><path d="M0 437L0 536L92 476Z" fill="#277297" stroke="#277297"></path><path d="M84 0L0 131L121 86Z" fill="#112e42" stroke="#112e42"></path><path d="M187 0L84 0L179 66Z" fill="#19435d" stroke="#19435d"></path><path d="M900 190L900 118L829 190Z" fill="#205a7a" stroke="#205a7a"></path><path d="M838 90L900 0L778 0Z" fill="#081a28" stroke="#081a28"></path><path d="M0 536L0 600L70 600Z" fill="#081a28" stroke="#081a28"></path><path d="M776 600L900 600L828 504Z" fill="#246688" stroke="#246688"></path><path d="M84 0L0 0L0 131Z" fill="#081a28" stroke="#081a28"></path><path d="M900 118L900 0L838 90Z" fill="#297ea6" stroke="#297ea6"></path></g></svg>